Spy Game *2001* [BluRay][1080p][ENG, POL]

General information:
Country: Germany, USA, Japan, France 
Release: 19 November 2001
Genre: Action, Crime, Thriller 
Director: Tony Scott
Screenplay: Michael Frost Beckner, David Arata
Original Music: Harry Gregson-Williams
Cinematography by: Daniel Mindel
Duration: 2h 6mn
Language: English, Polish
Subtitles: English, Polish
Rating: 7.7/10 - 13443 votes 

Cast:
Robert Redford  ...  Nathan D. Muir  
Brad Pitt  ...  Tom Bishop  
Catherine McCormack  ...  Elizabeth Hadley  
Stephen Dillane  ...  Charles Harker  
Larry Bryggman  ...  Troy Folger  
Marianne Jean-Baptiste  ...  Gladys Jennip  
Matthew Marsh  ...  Dr. William Byars  
Todd Boyce  ...  Robert Aiken  
Michael Paul Chan  ...  Vincent Vy Ngo  
Garrick Hagon  ...  CIA Director Cy Wilson  
Andrew Grainger  ...  Andrew Unger  
Bill Buell  ...  Fred Kappler  
Colin Stinton  ...  Henry Pollard  
Ted Maynard  ...  CIA Administrator  
Tom Hodgkins  ...  CIA Lobby Guard  

Plot:
Retiring CIA agent Nathan Muir recalls his training of Tom Bishop while working against agency politics to free him from his Chinese captors. 

Specifications:
General
Format                           : Matroska
Overall bit rate                 : 8 351 Kbps

Video
Format                           : AVC
Format/Info                      : Advanced Video Codec
Format profile                   : High@L4.0
Format settings, CABAC           : Yes
Format settings, ReFrames        : 3 frames
Muxing mode                      : Container profile=Unknown@4.0
Codec ID                         : V_MPEG4/ISO/AVC
Bit rate                         : 7 272 Kbps
Width                            : 1 920 pixels
Height                           : 1 080 pixels
Display aspect ratio             : 16:9
Frame rate                       : 23.976 fps

Audio 1
Format                           : AC-3
Format/Info                      : Audio Coding 3
Mode extension                   : CM (complete main)
Codec ID                         : A_AC3
Bit rate mode                    : Constant
Bit rate                         : 640 Kbps
Channel(s)                       : 6 channels
Channel positions                : Front: L C R, Side: L R, LFE
Sampling rate                    : 48.0 KHz
Stream size                      : 580 MiB (8%)
Title                            : English

Audio 2
Format                           : AC-3
Format/Info                      : Audio Coding 3
Mode extension                   : CM (complete main)
Codec ID                         : A_AC3
Bit rate mode                    : Constant
Bit rate                         : 448 Kbps
Channel(s)                       : 6 channels
Channel positions                : Front: L C R, Side: L R, LFE
Sampling rate                    : 48.0 KHz
Stream size                      : 406 MiB (5%)
Title                            : Polish
Language                         : Polish

Text 1
Format                           : UTF-8
Codec ID                         : S_TEXT/UTF8
Codec ID/Info                    : UTF-8 Plain Text
Title                            : English

Text 2
Format                           : UTF-8
Codec ID                         : S_TEXT/UTF8
Codec ID/Info                    : UTF-8 Plain Text
Title                            : Polish
Language                         : Polish
